<svg width="64" height="64" viewBox="0 0 64 64" fill="none" xmlns="http://www.w3.org/2000/svg">
  <style>
    path {
      fill: black;
    }
    @media (prefers-color-scheme: dark) {
      path {
        fill: white;
      }
    }
  </style>
<path fill-rule="evenodd" clip-rule="evenodd" d="M32 2.00015C49.6733 2.00015 64 15.4319 64 32.0002C64 48.5687 49.6731 62.0002 32 62.0002C14.3259 62.0002 0 48.5631 0 32.0002C0 15.4316 14.3269 2.00015 32 2.00015ZM57.9425 33.9502C57.9869 33.2005 57.0427 32.8533 56.5306 33.4025C53.8008 36.3302 50.1591 39.2089 45.842 41.7761C45.6355 41.8989 45.5808 42.1745 45.7256 42.3663C46.3013 43.1287 46.8669 43.9033 47.4219 44.6906C47.5879 44.9277 47.7584 45.1704 47.9268 45.4132C48.155 45.7433 47.8107 46.1359 47.4521 45.9543C47.1884 45.8206 46.9256 45.6852 46.668 45.5529C45.4336 44.914 44.2221 44.2504 43.033 43.5623C42.9139 43.4934 42.7679 43.4901 42.6459 43.5536C41.1155 44.3489 39.5178 45.1042 37.8604 45.8078C36.7617 46.2741 35.6646 46.7047 34.5738 47.1026C34.4276 47.1559 34.3252 47.2887 34.3111 47.4437C33.9306 51.6291 33.3976 55.8148 32.7071 60.0002C32.6804 60.1622 32.6563 60.3252 32.6299 60.4878C32.588 60.745 32.7887 60.9867 33.0491 60.9752C46.3252 60.3876 57.0419 48.6982 57.9395 34.0002C57.9405 33.9835 57.9415 33.9668 57.9425 33.9502ZM29.8479 49.1174C29.823 48.8698 29.5806 48.7044 29.3405 48.7696C23.5955 50.329 18.1976 50.8998 13.737 50.5038C13.0246 50.4406 12.5441 51.2495 13.0035 51.7977C17.5261 57.1942 23.8745 60.6602 30.9513 60.9732C31.2116 60.9848 31.4112 60.7433 31.3696 60.4861C31.3434 60.324 31.3195 60.1616 31.2929 60.0002C30.6943 56.3726 30.2135 52.7449 29.8479 49.1174ZM19.512 23.2419C19.3833 23.0794 19.1505 23.0418 18.9778 23.1565C10.3602 28.88 5.67414 36.5232 8.06641 42.1593C10.4612 47.8005 19.228 49.7361 29.3432 47.503C29.5386 47.4598 29.672 47.2773 29.6543 47.078C29.4371 44.6315 29.2721 42.1851 29.1603 39.7387C29.1309 39.0948 28.3918 38.7399 27.8679 39.1153C24.5588 41.4861 21.0502 43.6305 17.3359 45.5529C17.0783 45.6852 16.8155 45.8206 16.5518 45.9543C16.1931 46.136 15.8493 45.7434 16.0781 45.4132C16.2464 45.1704 16.416 44.9277 16.582 44.6906C19.6984 40.27 23.1372 36.2406 26.9109 32.5889C27.2405 32.2699 27.2404 31.7402 26.9107 31.4213C24.2825 28.8792 21.817 26.1528 19.512 23.2419ZM36.1323 39.1124C35.6083 38.7371 34.8691 39.0919 34.8395 39.7359C34.7522 41.639 34.6322 43.542 34.4813 45.4452C34.4584 45.7335 34.7389 45.9508 35.0109 45.8524C35.8287 45.5567 36.6492 45.2352 37.4697 44.8869C38.7433 44.3463 39.9704 43.7609 41.1462 43.1397C41.4192 42.9954 41.4276 42.6095 41.1643 42.4481C39.4383 41.3905 37.761 40.2791 36.1323 39.1124ZM55.9326 21.841C53.5379 16.1998 44.771 14.2626 34.6558 16.4954C34.4604 16.5385 34.327 16.7211 34.3447 16.9204C34.5622 19.3694 34.7277 21.8183 34.8396 24.2672C34.8691 24.9114 35.6086 25.2662 36.1326 24.8904C39.4495 22.5109 42.966 20.3596 46.6836 18.4347C46.9328 18.3074 47.1882 18.1765 47.4453 18.0461C47.8061 17.8632 48.1562 18.2624 47.9268 18.5949C47.7629 18.8318 47.599 19.0675 47.4395 19.297C44.3256 23.7226 40.8763 27.762 37.0923 31.4213C36.7625 31.7402 36.7625 32.27 37.0921 32.589C39.7161 35.1283 42.1777 37.8506 44.4822 40.7595C44.6109 40.922 44.8436 40.9596 45.0162 40.8449C53.6367 35.1213 58.3254 27.478 55.9326 21.841ZM31.3704 3.50892C31.4117 3.25252 31.2114 3.0126 30.952 3.02407C17.6754 3.61111 6.95816 15.3017 6.06055 30.0002C6.05956 30.0162 6.05859 30.0323 6.05764 30.0484C6.01307 30.798 6.95631 31.1453 7.46841 30.5961C10.1973 27.6695 13.8373 24.7913 18.1523 22.2251C18.3588 22.1023 18.4135 21.8268 18.2688 21.635C17.69 20.868 17.1216 20.0889 16.5645 19.297C16.4049 19.0675 16.241 18.8318 16.0771 18.5949C15.848 18.2625 16.1979 17.8635 16.5586 18.0461C16.8157 18.1765 17.0712 18.3074 17.3203 18.4347C18.5593 19.0762 19.7764 19.7423 20.9709 20.434C21.09 20.503 21.236 20.5063 21.3581 20.4428C22.8869 19.6486 24.4832 18.8952 26.1387 18.1925C27.2375 17.7261 28.3343 17.2939 29.4252 16.8958C29.5714 16.8424 29.6739 16.7096 29.688 16.5547C30.0684 12.3699 30.6024 8.18494 31.2929 4.00015C31.3198 3.83699 31.344 3.67276 31.3704 3.50892ZM29.5178 18.5532C29.5406 18.2648 29.2601 18.0476 28.9881 18.146C28.1703 18.4419 27.35 18.7641 26.5293 19.1125C25.2569 19.6526 24.0305 20.2366 22.8555 20.857C22.5825 21.0011 22.5741 21.387 22.8373 21.5484C24.5622 22.6064 26.2389 23.7189 27.8674 24.8867C28.3914 25.2624 29.1309 24.9076 29.1604 24.2635C29.2475 22.3601 29.3669 20.4566 29.5178 18.5532ZM33.0457 3.02595C32.7863 3.01451 32.5873 3.25427 32.6291 3.51049C32.6558 3.67374 32.6803 3.83738 32.7071 4.00015C33.3056 7.62706 33.7866 11.2541 34.1521 14.881C34.177 15.1285 34.4194 15.2939 34.6595 15.2288C40.4036 13.6696 45.8009 13.0997 50.2611 13.4956C50.9735 13.5588 51.4539 12.7499 50.9945 12.2017C46.4715 6.8051 40.123 3.33824 33.0457 3.02595Z" fill="black"/>
</svg>